<?xml version="1.0" standalone="no"?>
<!DOCTYPE svg PUBLIC "-//W3C//DTD SVG 20010904//EN"
 "http://www.w3.org/TR/2001/REC-SVG-20010904/DTD/svg10.dtd">
<svg version="1.0" xmlns="http://www.w3.org/2000/svg"
 width="500.000000pt" height="500.000000pt" viewBox="0 0 500.000000 500.000000"
 preserveAspectRatio="xMidYMid meet">

<g transform="translate(0.000000,500.000000) scale(0.100000,-0.100000)"
fill="#ffffff" stroke="none">
<path d="M1208 4132 l-58 -3 0 -988 0 -988 113 -6 c348 -20 693 -200 921 -482
78 -97 163 -222 216 -320 41 -76 92 -197 85 -203 -6 -7 -1 -14 -70 93 -169
259 -339 444 -521 564 -125 83 -258 149 -360 180 -92 27 -105 26 -29 -3 314
-121 625 -378 790 -652 19 -32 35 -62 35 -66 0 -5 -26 10 -57 34 -258 196
-573 322 -906 363 -180 22 -343 19 -564 -11 l-53 -7 0 882 c0 484 -2 881 -4
881 -2 0 -33 -9 -68 -20 l-65 -20 -7 -72 c-19 -221 -15 -1842 6 -1863 2 -2 44
5 93 15 236 47 557 52 757 11 341 -70 672 -251 965 -528 l72 -68 63 58 c356
330 701 505 1105 558 130 17 415 7 568 -20 66 -12 127 -24 136 -26 14 -5 17
13 22 137 9 186 9 1484 0 1662 l-6 136 -56 17 c-31 8 -61 17 -66 20 -7 2 -11
-279 -12 -877 0 -485 -2 -882 -4 -884 -2 -2 -35 2 -74 10 -104 21 -370 29
-495 15 -363 -42 -687 -167 -952 -368 -31 -24 -59 -43 -62 -43 -23 0 149 244
228 323 106 107 184 172 279 234 112 72 250 144 326 169 78 25 54 29 -31 4
-159 -48 -404 -194 -550 -330 -94 -87 -206 -225 -311 -382 -112 -168 -124
-168 -44 2 90 192 255 421 386 537 238 210 504 324 794 340 l107 6 0 988 0
989 -162 0 c-365 0 -595 -83 -829 -298 -86 -79 -210 -231 -280 -342 l-57 -89
41 -83 c34 -67 42 -96 45 -151 5 -74 -14 -141 -47 -171 -23 -21 -23 -21 -46
108 -10 55 -21 92 -25 85 -4 -8 -15 -54 -25 -104 -9 -49 -19 -94 -22 -98 -8
-14 -50 51 -63 98 -18 63 1 149 52 245 l40 76 -53 84 c-181 294 -421 499 -685
585 -134 44 -350 67 -526 57z m1292 -1169 c0 -71 4 -134 9 -141 6 -10 19 -5
54 22 62 47 60 28 -3 -38 l-51 -54 3 -131 3 -130 70 44 c39 24 74 45 80 45 14
0 -85 -98 -122 -121 l-33 -21 0 -149 c0 -82 2 -149 4 -149 2 0 34 14 71 31 37
16 71 29 76 27 5 -2 -27 -29 -71 -62 l-80 -58 -1 -216 c-1 -120 -5 -291 -8
-382 l-6 -165 -7 120 c-4 66 -11 241 -14 388 l-7 268 -51 34 c-28 19 -62 44
-76 56 l-25 20 25 -7 c14 -3 48 -16 75 -29 l50 -22 3 146 3 146 -28 20 c-44
31 -124 108 -118 113 2 3 36 -13 75 -36 l70 -40 0 135 0 136 -50 48 c-63 60
-65 81 -4 34 26 -19 51 -35 55 -35 5 0 9 63 9 140 0 87 4 140 10 140 6 0 10
-49 10 -127z m-239 83 c107 -33 166 -84 184 -158 9 -37 -6 -36 -64 5 -25 18
-51 36 -58 40 -7 4 8 -25 32 -65 24 -40 42 -76 39 -80 -5 -7 -57 9 -85 27 -29
19 -67 80 -83 134 -14 47 -22 111 -13 111 1 0 23 -7 48 -14z m519 7 c0 -5 -7
-37 -16 -73 -17 -74 -53 -140 -86 -162 -29 -18 -90 -40 -96 -33 -2 2 18 38 46
80 l50 76 -36 -22 c-20 -13 -49 -31 -64 -41 -36 -25 -51 -23 -42 5 15 49 23
63 56 95 47 44 188 101 188 75z m-586 -293 c99 -25 173 -65 203 -111 27 -41
46 -99 32 -99 -5 0 -49 17 -99 39 -49 21 -90 35 -90 30 0 -5 4 -9 8 -9 5 0 39
-37 77 -82 l68 -83 -38 -3 c-81 -7 -166 51 -214 147 -16 29 -61 171 -61 188 0
8 44 1 114 -17z m706 14 c0 -25 -37 -138 -60 -183 -49 -97 -124 -151 -210
-151 -51 0 -50 2 53 114 l77 85 -97 -45 c-54 -24 -103 -44 -110 -44 -20 0 7
67 45 111 19 22 51 48 72 59 72 36 230 74 230 54z m-705 -404 c84 -12 186 -59
215 -100 11 -15 23 -43 27 -61 5 -29 4 -32 -13 -25 -38 16 -188 66 -196 66 -5
0 22 -25 59 -56 84 -69 115 -103 108 -115 -10 -15 -98 -10 -140 10 -53 24
-122 102 -161 182 -52 105 -52 109 -7 109 21 0 70 -5 108 -10z m735 -3 c0 -24
-70 -159 -106 -202 -58 -72 -182 -118 -232 -87 -13 9 52 77 131 136 21 16 36
30 34 33 -2 2 -50 -13 -107 -32 -56 -20 -104 -34 -107 -32 -9 10 29 83 59
114 46 47 153 78 281 82 32 1 47 -3 47 -12z"/>
<path d="M897 3766 c-26 -7 -50 -15 -52 -18 -3 -3 -8 -417 -12 -922 l-6 -916
144 0 c183 0 281 -12 447 -55 221 -58 418 -147 580 -262 34 -25 62 -42 62 -40
0 13 -178 160 -253 210 -187 125 -365 202 -612 267 l-140 37 -6 644 c-3 354
-7 740 -8 857 l-1 212 -47 -1 c-27 0 -69 -6 -96 -13z"/>
<path d="M3959 3538 c-1 -134 -5 -519 -8 -857 l-6 -613 -95 -24 c-321 -81
-658 -250 -840 -423 l-65 -62 60 39 c185 121 366 201 578 257 165 43 263 55
445 55 l144 0 -3 908 c-1 499 -4 913 -7 919 -6 18 -97 43 -154 43 l-48 0 -1
-242z"/>
<path d="M830 1790 c0 -50 0 -50 28 -43 15 4 131 7 257 7 256 0 380 -16 570
-73 55 -16 101 -28 104 -26 2 2 -22 16 -54 29 -234 104 -486 156 -754 156
l-151 0 0 -50z"/>
<path d="M3730 1820 c-178 -30 -401 -100 -498 -155 -30 -18 -21 -16 78 14 73
22 169 44 280 63 83 14 468 18 538 5 l42 -7 0 50 0 50 -167 -1 c-112 -1 -203
-7 -273 -19z"/>
<path d="M1800 1646 c0 -2 7 -7 16 -10 8 -3 12 -2 9 4 -6 10 -25 14 -25 6z"/>
</g>
</svg>
